<svg width="28" height="32" viewBox="0 0 28 32" fill="none" xmlns="http://www.w3.org/2000/svg">
<path fill-rule="evenodd" clip-rule="evenodd" d="M25.5134 27.7161C24.9324 28.673 24.3515 29.3906 23.6509 30.0568C22.8648 30.7574 22.6427 31.3726 20.8314 31.612C19.5498 31.8513 18.4392 31.3726 18.012 31.1848C16.7304 30.5865 16.0637 30.3988 15.295 30.3988C14.5432 30.3988 13.9109 30.5868 12.6464 31.1678C12.2534 31.3726 11.194 31.8342 9.89534 31.5949C8.56251 31.3557 7.879 30.8431 7.38346 30.4159C6.35821 29.5103 5.58926 28.6559 4.88867 27.6648L25.5134 27.7161Z" fill="#1E71B8"/>
<path fill-rule="evenodd" clip-rule="evenodd" d="M2.00073 11.7733C2.5988 10.4234 3.38483 9.51775 4.17086 8.88551C6.17011 7.2451 9.43385 7.14257 10.9376 7.53559C12.1679 7.84317 13.0393 8.59502 14.4234 8.59502C15.8759 8.59502 16.7129 7.86025 17.858 7.53559C19.3617 7.15966 22.6426 7.27927 24.7785 8.91969C25.4108 9.39814 25.9915 10.0475 26.3162 10.4063C25.5475 10.9702 25.0859 11.3803 24.7099 11.7733H2.00073Z" fill="#6FB353"/>
<path fill-rule="evenodd" clip-rule="evenodd" d="M24.71 11.7734C24.3512 12.1664 24.0949 12.5423 23.8044 13.072C23.4629 13.6872 23.0525 14.5245 22.95 15.789H0.992432C1.00952 15.5839 1.02661 15.3618 1.06078 15.1396C1.26583 13.7897 1.5905 12.679 2.0006 11.7734H24.71Z" fill="#FFF22D"/>
<path fill-rule="evenodd" clip-rule="evenodd" d="M22.95 15.7889C22.9329 16.1761 22.9329 16.5638 22.95 16.9509C23.0013 17.8907 23.3259 18.9331 23.7531 19.7704L1.4196 19.7191C1.11202 18.3692 0.941144 16.9851 0.992407 15.7889H22.95Z" fill="#E0922F"/>
<path fill-rule="evenodd" clip-rule="evenodd" d="M23.7532 19.7704C23.9281 20.133 24.1399 20.4766 24.3854 20.7956C25.855 22.6753 26.4872 22.6753 27.6321 23.2563C27.5469 23.4611 27.4785 23.6493 27.3929 23.8201L2.71858 23.7689C2.24013 22.7265 1.74459 21.257 1.41992 19.7191L23.7532 19.7704Z" fill="#CC2229"/>
<path fill-rule="evenodd" clip-rule="evenodd" d="M27.3928 23.8201C26.6753 25.4947 26.0941 26.7248 25.5131 27.7161L4.88863 27.6648C4.20513 26.6567 3.58997 25.5457 2.88938 24.1616C2.83812 24.042 2.76977 23.9053 2.71851 23.7689L27.3928 23.8201Z" fill="#5A308D"/>
<path fill-rule="evenodd" clip-rule="evenodd" d="M20.2335 2.42644C20.1139 3.28082 19.6867 4.37443 19.0032 5.07502C18.2682 5.86105 17.1235 6.71543 16.4398 7.14262C16.0639 7.38185 15.0899 7.41603 14.287 7.50146C14.1845 6.78378 14.1674 6.16863 14.3895 5.50221C14.68 4.71618 15.0562 3.5884 15.654 2.80237C16.3888 1.82837 17.2261 1.16196 17.6874 0.922731C18.3028 0.615154 19.3281 0.153789 20.2164 0C20.2508 0.78603 20.3704 1.67459 20.2335 2.42644Z" fill="#6FB353"/>
</svg>
