<svg width="28" height="29" viewBox="0 0 28 29" fill="none" xmlns="http://www.w3.org/2000/svg">
<path d="M23.831 0.869934H4.40251C2.10321 0.869934 0.239258 2.74615 0.239258 5.06058V24.6169C0.239258 26.9313 2.10321 28.8076 4.40251 28.8076H23.831C26.1303 28.8076 27.9943 26.9313 27.9943 24.6169V5.06058C27.9943 2.74615 26.1303 0.869934 23.831 0.869934Z" fill="#3B5998"/>
<path d="M15.7975 25.7519V9.43673C15.7975 8.29085 16.1227 7.52693 17.6948 7.52693H19.7547V4.0893C19.3753 4.03473 18.1827 3.9256 16.7732 3.9256C13.8459 3.9256 11.8402 5.72626 11.8402 9.05477V25.7519M19.5921 11.8922H8.47925V15.8209H19.1042" fill="white"/>
</svg>
