<svg width="24" height="25" viewBox="0 0 24 25" fill="none" xmlns="http://www.w3.org/2000/svg">
<path d="M8.23503 1.52299C10.8792 0.624554 13.8453 0.644669 16.4757 1.59674C17.9348 2.11971 19.2705 2.9511 20.4145 3.98363C20.0309 4.38592 19.6199 4.76809 19.2226 5.16367C18.4691 5.89448 17.7224 6.63201 16.9689 7.36282C16.2223 6.66553 15.318 6.13585 14.3316 5.84755C13.174 5.50561 11.9272 5.45868 10.7422 5.70675C9.35845 5.99506 8.07747 6.70576 7.09106 7.69136C6.2896 8.48252 5.67994 9.46141 5.31688 10.5141C3.98111 9.50164 2.64534 8.48252 1.30957 7.4701C2.71384 4.70774 5.25523 2.522 8.23503 1.52299Z" fill="#E94435"/>
<path d="M0.241065 10.4738C0.453418 9.42787 0.816474 8.41545 1.30283 7.46338C2.6386 8.4758 3.97437 9.49492 5.31014 10.5073C4.78268 12.0025 4.78954 13.672 5.31014 15.1671C3.97437 16.1795 2.6386 17.1987 1.30283 18.2111C0.0766624 15.851 -0.300093 13.0753 0.241065 10.4738Z" fill="#F8BB15"/>
<path d="M12.2355 10.5945C16.0715 10.5945 19.9076 10.5945 23.7505 10.5945C24.1341 12.6998 24.0519 14.8923 23.4422 16.9506C22.8805 18.8347 21.8256 20.5913 20.346 21.9189C19.0513 20.9333 17.7498 19.9477 16.462 18.9621C17.7498 18.124 18.654 16.7562 18.9143 15.261C16.6949 15.261 14.4686 15.261 12.2492 15.261C12.2286 13.7123 12.2355 12.1567 12.2355 10.5945Z" fill="#547DBE"/>
<path d="M1.30249 18.2178C2.63826 17.2054 3.97403 16.1863 5.3098 15.1739C5.81671 16.6489 6.80998 17.9564 8.1115 18.8481C8.92666 19.4113 9.85827 19.8069 10.8378 20.0013C11.7969 20.189 12.797 20.1689 13.756 20.008C14.715 19.8471 15.6398 19.4985 16.4481 18.9688C17.7427 19.9544 19.0443 20.94 20.3321 21.9256C18.9347 23.1928 17.181 24.0577 15.3247 24.4734C13.2765 24.9293 11.105 24.9427 9.06366 24.4063C7.44704 23.9839 5.92631 23.233 4.61794 22.2139C3.24107 21.1344 2.0971 19.7599 1.30249 18.2178Z" fill="#34A751"/>
</svg>
