<svg width="14" height="13" viewBox="0 0 14 13" fill="none" xmlns="http://www.w3.org/2000/svg">
<path d="M13.0986 6.40845C13.0982 4.70893 12.423 3.07911 11.2212 1.87737C10.0195 0.675623 8.38965 0.000339803 6.69013 0V1.28169C7.70401 1.28192 8.69507 1.58265 9.5381 2.14589C10.3811 2.70913 11.0383 3.50961 11.4266 4.44618C11.6843 5.06829 11.8169 5.73508 11.8169 6.40845H13.0986ZM0.281677 5.12676V1.92254C0.281677 1.75257 0.349195 1.58957 0.469376 1.46939C0.589558 1.34921 0.75256 1.28169 0.922522 1.28169H4.12675C4.29671 1.28169 4.45971 1.34921 4.57989 1.46939C4.70008 1.58957 4.76759 1.75257 4.76759 1.92254V4.48592C4.76759 4.65588 4.70008 4.81888 4.57989 4.93906C4.45971 5.05924 4.29671 5.12676 4.12675 5.12676H2.84506C2.84506 6.48646 3.3852 7.79047 4.34665 8.75193C5.3081 9.71338 6.61212 10.2535 7.97182 10.2535V8.97183C7.97182 8.80187 8.03934 8.63887 8.15952 8.51869C8.2797 8.3985 8.4427 8.33099 8.61266 8.33099H11.176C11.346 8.33099 11.509 8.3985 11.6292 8.51869C11.7494 8.63887 11.8169 8.80187 11.8169 8.97183V12.1761C11.8169 12.346 11.7494 12.509 11.6292 12.6292C11.509 12.7494 11.346 12.8169 11.176 12.8169H7.97182C3.72494 12.8169 0.281677 9.37364 0.281677 5.12676Z" fill="white"/>
<path d="M10.2423 4.93717C10.4358 5.40359 10.5353 5.9036 10.5352 6.40855H9.38167C9.38176 6.05506 9.3122 5.70503 9.17696 5.37844C9.04173 5.05184 8.84348 4.7551 8.59352 4.50515C8.34357 4.2552 8.04683 4.05694 7.72024 3.92171C7.39364 3.78647 7.04361 3.71691 6.69012 3.717V2.56348C7.45058 2.56352 8.19396 2.78905 8.82624 3.21156C9.45853 3.63408 9.95133 4.23459 10.2423 4.93717Z" fill="white"/>
</svg>
