<svg width="28" height="28" viewBox="0 0 28 28" fill="none" xmlns="http://www.w3.org/2000/svg">
<path d="M23.2482 0.535156H4.62317C2.41895 0.535156 0.63208 2.32203 0.63208 4.52624V23.1513C0.63208 25.3555 2.41895 27.1424 4.62317 27.1424H23.2482C25.4525 27.1424 27.2393 25.3555 27.2393 23.1513V4.52624C27.2393 2.32203 25.4525 0.535156 23.2482 0.535156Z" fill="#1DA1F2"/>
<path d="M23.3418 8.43423C22.7182 8.74603 21.9907 8.9539 21.2631 9.05784C22.0427 8.59013 22.6143 7.86259 22.9261 6.97915C22.1986 7.39489 21.419 7.70669 20.5876 7.86259C20.022 7.28338 19.2839 6.9032 18.484 6.7791C17.6841 6.655 16.8654 6.79367 16.151 7.17431C15.4366 7.55495 14.8649 8.15703 14.5217 8.89018C14.1785 9.62333 14.0823 10.448 14.2476 11.2405C11.3374 11.0846 8.53116 9.73341 6.7123 7.39489C6.46481 7.79018 6.29802 8.23055 6.22153 8.69061C6.14505 9.15068 6.16039 9.62133 6.26667 10.0754C6.37295 10.5295 6.56807 10.9581 6.84077 11.3365C7.11348 11.7148 7.45838 12.0354 7.85558 12.2798C7.28394 12.2798 6.7123 12.1759 6.19263 11.916C6.2446 13.631 7.43985 15.138 9.1028 15.5018C8.58313 15.6577 8.01149 15.6577 7.43985 15.5538C7.95952 17.0608 9.36263 18.1001 10.9217 18.1521C9.4146 19.3993 7.38788 19.971 5.46509 19.6592C7.07187 20.7314 8.94684 21.3321 10.8775 21.3933C12.8082 21.4545 14.7175 20.9737 16.389 20.0055C18.0604 19.0372 19.4273 17.6202 20.3347 15.9149C21.2421 14.2096 21.6537 12.2843 21.523 10.357C22.2505 9.83735 22.8741 9.21374 23.3418 8.43423Z" fill="white"/>
</svg>
