<svg width="30" height="31" viewBox="0 0 30 31" fill="none" xmlns="http://www.w3.org/2000/svg">
<path d="M15 0.952484C6.72 0.952484 0 7.66184 0 15.9287C0 24.1956 6.72 30.905 15 30.905C23.28 30.905 30 24.1956 30 15.9287C30 7.66184 23.28 0.952484 15 0.952484ZM15 6.94298C17.895 6.94298 20.25 9.29425 20.25 12.1847C20.25 15.0751 17.895 17.4263 15 17.4263C12.105 17.4263 9.75 15.0751 9.75 12.1847C9.75 9.29425 12.105 6.94298 15 6.94298ZM15 27.9097C11.955 27.9097 8.355 26.6817 5.79 23.5966C8.41741 21.5384 11.6604 20.4198 15 20.4198C18.3396 20.4198 21.5826 21.5384 24.21 23.5966C21.645 26.6817 18.045 27.9097 15 27.9097Z" fill="black"/>
</svg>
